HIERARCHY
ROOT Hips
{
	OFFSET 0.000000 0.000000 0.000000
	CHANNELS 6 Xposition Yposition Zposition Zrotation Yrotation Xrotation 
	JOINT LHipJoint
	{
		OFFSET 0.000000 0.000000 0.000000
		CHANNELS 3 Zrotation Yrotation Xrotation
		JOINT LeftUpLeg
		{
			OFFSET 1.363060 -1.794630 0.839290
			CHANNELS 3 Zrotation Yrotation Xrotation
			JOINT LeftLeg
			{
				OFFSET 2.448110 -6.726130 0.000000
				CHANNELS 3 Zrotation Yrotation Xrotation
				JOINT LeftFoot
				{
					OFFSET 2.562200 -7.039590 0.000000
					CHANNELS 3 Zrotation Yrotation Xrotation
					JOINT LeftToeBase
					{
						OFFSET 0.157640 -0.433110 2.322550
						CHANNELS 3 Zrotation Yrotation Xrotation
						End Site
						{
							OFFSET 0.000000 0.000000 0.000000
						}
					}
				}
			}
		}
	}
	JOINT RHipJoint
	{
		OFFSET 0.000000 0.000000 0.000000
		CHANNELS 3 Zrotation Yrotation Xrotation
		JOINT RightUpLeg
		{
			OFFSET -1.305520 -1.794630 0.839290
			CHANNELS 3 Zrotation Yrotation Xrotation
			JOINT RightLeg
			{
				OFFSET -2.542530 -6.985550 0.000000
				CHANNELS 3 Zrotation Yrotation Xrotation
				JOINT RightFoot
				{
					OFFSET -2.568260 -7.056230 0.000000
					CHANNELS 3 Zrotation Yrotation Xrotation
					JOINT RightToeBase
					{
						OFFSET -0.164730 -0.452590 2.363150
						CHANNELS 3 Zrotation Yrotation Xrotation
						End Site
						{
							OFFSET 0.000000 0.000000 0.000000
						}
					}
				}
			}
		}
	}
	JOINT LowerBack
	{
		OFFSET 0.000000 0.000000 0.000000
		CHANNELS 3 Zrotation Yrotation Xrotation
		JOINT Spine
		{
			OFFSET 0.028270 2.035590 -0.193380
			CHANNELS 3 Zrotation Yrotation Xrotation
			JOINT Spine1
			{
				OFFSET 0.056720 2.048850 -0.042750
				CHANNELS 3 Zrotation Yrotation Xrotation
				JOINT Neck
				{
					OFFSET 0.000000 0.000000 0.000000
					CHANNELS 3 Zrotation Yrotation Xrotation
					JOINT Neck1
					{
						OFFSET -0.054170 1.746240 0.172020
						CHANNELS 3 Zrotation Yrotation Xrotation
						JOINT Head
						{
							OFFSET 0.104070 1.761360 -0.123970
							CHANNELS 3 Zrotation Yrotation Xrotation
							End Site
							{
								OFFSET 0.000000 0.000000 0.000000
							}
						}
					}
				}
				JOINT LeftShoulder
				{
					OFFSET 0.000000 0.000000 0.000000
					CHANNELS 3 Zrotation Yrotation Xrotation
					JOINT LeftArm
					{
						OFFSET 3.362410 1.200890 -0.311210
						CHANNELS 3 Zrotation Yrotation Xrotation
						JOINT LeftForeArm
						{
							OFFSET 4.983000 -0.000000 -0.000000
							CHANNELS 3 Zrotation Yrotation Xrotation
							JOINT LeftHand
							{
								OFFSET 3.483560 -0.000000 -0.000000
								CHANNELS 3 Zrotation Yrotation Xrotation
								JOINT LeftFingerBase
								{
									OFFSET 0.000000 0.000000 0.000000
									CHANNELS 3 Zrotation Yrotation Xrotation
									JOINT LeftHandIndex1
									{
										OFFSET 0.715260 -0.000000 -0.000000
										CHANNELS 3 Zrotation Yrotation Xrotation
										End Site
										{
											OFFSET 0.000000 0.000000 0.000000
										}
									}
								}
								JOINT LThumb
								{
									OFFSET 0.000000 0.000000 0.000000
									CHANNELS 3 Zrotation Yrotation Xrotation
									End Site
									{
										OFFSET 0.000000 0.000000 0.000000
									}
								}
							}
						}
					}
				}
				JOINT RightShoulder
				{
					OFFSET 0.000000 0.000000 0.000000
					CHANNELS 3 Zrotation Yrotation Xrotation
					JOINT RightArm
					{
						OFFSET -3.136600 1.374050 -0.404650
						CHANNELS 3 Zrotation Yrotation Xrotation
						JOINT RightForeArm
						{
							OFFSET -5.241900 -0.000000 -0.000000
							CHANNELS 3 Zrotation Yrotation Xrotation
							JOINT RightHand
							{
								OFFSET -3.444170 -0.000000 -0.000000
								CHANNELS 3 Zrotation Yrotation Xrotation
								JOINT RightFingerBase
								{
									OFFSET 0.000000 0.000000 0.000000
									CHANNELS 3 Zrotation Yrotation Xrotation
									JOINT RightHandIndex1
									{
										OFFSET -0.622530 -0.000000 -0.000000
										CHANNELS 3 Zrotation Yrotation Xrotation
										End Site
										{
											OFFSET 0.000000 0.000000 0.000000
										}
									}
								}
								JOINT RThumb
								{
									OFFSET 0.000000 0.000000 0.000000
									CHANNELS 3 Zrotation Yrotation Xrotation
									End Site
									{
										OFFSET 0.000000 0.000000 0.000000
									}
								}
							}
						}
					}
				}
			}
		}
	}
}
MOTION
Frames: 6
Frame Time: 0.008333
0.327734 15.369004 -0.841452 -0.217487 -1.438158 15.308325 -1.520922 -0.416001 -0.047627 2.600749 2.930788 -24.983063 6.973843 15.868617 49.897013 2.891179 -1.850932 -27.730205 4.926000 -13.300000 -40.502000 2.256377 0.984608 -0.187951 -1.413777 5.713322 -28.512504 -9.525537 -17.041107 58.558483 -1.252340 -9.245614 -33.160372 -0.257700 3.266400 -9.021300 -3.035327 1.096189 19.520700 0.926413 1.167855 -1.605630 4.597247 0.684093 -12.873258 -0.082266 1.603103 -20.333419 2.091433 1.807654 6.744727 -0.228500 0.827000 6.103000 1.338202 5.416493 -0.733760 -82.479223 8.466322 37.483204 83.288524 -63.342835 -50.013948 0.200991 1.994773 -18.616182 22.218472 -27.285098 -10.918900 -7.125000 0.000000 0.000000 -5.465800 -1.127400 5.597700 -0.283203 -6.280012 -1.781610 74.751658 -2.972687 27.750893 -73.817539 64.881728 -43.088144 1.229690 -1.121043 -10.672460 -13.028297 -31.094523 7.043400 7.125000 0.000000 0.000000 19.383400 -59.263400 -6.914600 
0.335189 15.540575 -0.429126 -0.099490 -0.804097 14.519466 -1.650577 -0.318303 0.227052 2.425247 2.405714 -20.469468 5.730735 14.748008 45.271253 2.784199 -2.295086 -26.339814 4.927300 -13.301400 -40.507600 2.178967 1.164281 -0.349169 -0.790314 3.574231 -23.950954 -8.277349 -16.537071 54.339358 -1.149438 -9.155983 -32.365155 -0.274500 3.370200 -9.311300 -2.815945 0.814662 18.684528 0.905628 0.892465 -2.067371 4.558586 0.542706 -12.998755 -0.293221 1.446390 -20.228015 2.398372 1.677117 8.246015 -0.093200 0.818300 6.530500 1.295771 5.268142 -0.853510 -80.204844 10.902084 39.188637 96.019447 -61.950709 -60.447495 0.225122 2.136207 -19.075518 22.954571 -27.595749 -11.443400 -7.125000 0.000000 0.000000 -5.148800 -1.754300 5.325300 -0.267250 -6.068622 -1.916518 72.602264 -5.154976 28.584380 -87.900025 64.833372 -53.437542 1.577198 -0.961842 -7.958258 -10.996689 -29.528329 5.948700 7.125000 0.000000 0.000000 20.060500 -57.586600 -6.352400 
0.337575 15.795844 0.064612 0.041453 -0.276938 13.282997 -1.788614 -0.182797 0.585826 1.954927 1.784796 -14.738743 4.368638 13.297831 39.883463 2.429462 -2.118702 -24.118336 4.974900 -13.355500 -40.714100 2.065449 1.396321 -0.573073 -0.144696 1.327949 -17.934357 -6.718546 -15.718179 48.812092 -0.960674 -8.997185 -30.936244 -0.266900 3.323600 -9.181100 -2.784050 0.625817 17.413479 0.843148 0.699510 -2.522816 4.571547 0.436902 -12.830001 -0.099301 1.245603 -19.553815 2.481177 1.394471 9.960896 -0.100400 0.743200 6.945800 1.212679 5.090945 -0.915817 -77.725869 13.829924 40.388590 105.056909 -60.289391 -68.551720 0.168753 2.118583 -18.964586 22.223571 -27.667631 -11.084600 -7.125000 0.000000 0.000000 -5.541000 -1.660400 5.725800 -0.210283 -5.844517 -2.045025 70.078409 -7.851781 30.047556 -99.499677 63.184087 -62.767367 1.736608 -0.892440 -4.319083 -9.759313 -28.112183 5.234900 7.125000 0.000000 0.000000 20.261200 -56.204400 -5.733600 
0.357356 16.118111 0.647814 0.595897 0.512859 11.671411 -1.922788 -0.061854 0.953378 0.785484 0.905683 -8.237444 2.964423 11.505603 33.827783 1.662295 -0.729871 -20.565599 5.266700 -13.678000 -41.962400 1.961048 1.701491 -0.832027 -0.448390 -1.934129 -10.854611 -4.995986 -14.509362 42.233862 -0.516644 -8.617545 -27.243415 -0.319900 3.635500 -10.053300 -2.838312 0.295698 15.724283 0.672652 0.289647 -2.935362 4.615089 0.214364 -12.311980 0.546949 1.143127 -18.837567 1.531136 1.278474 12.274514 -0.455900 0.687000 7.552500 1.095789 4.911729 -0.941874 -74.960732 17.246009 40.918105 111.696399 -58.937763 -74.757513 0.143473 2.032307 -18.337135 20.969838 -28.001919 -10.498200 -7.125000 0.000000 0.000000 -6.253300 -1.649500 6.468900 -0.122366 -5.646901 -2.149016 66.853106 -11.244994 31.845783 -108.953843 61.216993 -71.205986 1.759527 -0.836071 -1.932961 -9.403886 -28.329393 5.158300 7.125000 0.000000 0.000000 20.775200 -56.467400 -6.022400 
0.379026 16.490477 1.236980 0.561995 0.911326 11.197573 -1.898175 0.019987 1.130185 0.155058 0.689786 -3.738274 2.120220 10.133633 29.518567 0.596070 1.205174 -14.082265 6.034100 -14.461300 -45.118300 1.835047 1.869914 -1.017016 -0.165635 -3.565279 -6.233868 -3.964496 -13.511855 37.707770 0.206154 -8.777297 -20.687924 -0.345800 3.778600 -10.454700 -2.398909 0.027339 12.694338 0.626815 0.063610 -3.574395 4.396694 0.041704 -11.152438 0.800349 1.057253 -18.327157 1.173793 1.237976 14.650851 -0.567600 0.701500 8.208600 0.973728 4.816672 -0.957105 -71.950321 20.691997 40.991314 116.923991 -57.806938 -79.688213 0.133730 1.938343 -17.525206 19.985468 -28.364573 -10.063000 -7.125000 0.000000 0.000000 -6.815700 -1.723800 7.067200 -0.026187 -5.480085 -2.204142 63.410686 -13.748578 33.649431 -115.833719 59.573200 -77.560534 1.706273 -0.795552 -1.681804 -10.376121 -28.191492 5.576300 7.125000 0.000000 0.000000 19.781400 -56.562000 -5.763700 
0.400895 16.957376 1.814614 0.066223 1.186635 10.076831 -1.783021 0.099159 1.227044 -0.078012 1.271654 0.350276 1.649297 9.074184 26.355417 -0.144638 2.660039 -5.910203 7.282700 -15.565400 -49.935400 1.676929 1.984289 -1.187797 0.792343 -4.702891 -2.165359 -3.357049 -12.801811 34.642284 0.869472 -9.752982 -11.638785 -0.431800 4.216700 -11.687200 -1.520611 -0.188099 10.708159 0.747163 -0.055786 -3.952090 4.044943 -0.097159 -10.334083 0.971657 1.044894 -17.811884 0.821784 1.316250 16.669386 -0.657100 0.756800 8.762200 0.854585 4.762344 -0.963549 -69.092988 23.761901 40.493619 120.817014 -56.922114 -83.350234 0.166233 1.853801 -16.338701 18.987232 -28.991914 -9.674900 -7.125000 0.000000 0.000000 -7.434900 -2.070900 7.763500 0.071781 -5.373227 -2.248649 59.691642 -15.470846 35.246894 -121.312379 58.123199 -82.595571 1.651574 -0.719605 -2.048908 -10.200679 -28.049720 5.453400 7.125000 0.000000 0.000000 19.977700 -56.453800 -5.771100 
